<svg width="60" height="53" viewBox="0 0 60 53" fill="none" xmlns="http://www.w3.org/2000/svg">
<path d="M58.2009 31.1959C59.9061 29.1102 60.4028 26.6098 59.6752 23.762C58.9692 20.999 56.906 18.7743 54.1564 17.8111C51.3546 16.8293 48.2754 17.2893 45.9202 19.0413C45.5525 19.3148 44.3202 20.2001 43.8778 20.3755C43.6488 20.4662 43.4502 20.6 43.2866 20.7629C34.2382 25.9312 22.684 25.3578 14.1926 19.0412C13.7746 18.7303 13.333 18.4608 12.8741 18.2321C12.8645 18.2269 12.8544 18.2223 12.8447 18.2173C10.7111 17.1637 8.19962 17.0043 5.86641 17.8215C3.09622 18.792 1.02282 21.0127 0.320396 23.7619C-0.36058 26.4268 0.220084 29.1424 1.77833 31.2175C1.09653 32.1183 0.593209 33.1417 0.320396 34.2099C-0.412143 37.0767 0.113091 39.5938 1.88169 41.691C3.63176 43.7664 6.23895 45.0291 8.21145 46.2217C14.7761 50.1905 22.33 52.2883 30.0564 52.2883C42.9176 52.2883 50.799 46.8881 55.747 43.8967C59.0647 41.8911 60.6434 37.9983 59.6754 34.2099C59.4001 33.1332 58.8911 32.1021 58.2009 31.1959ZM53.9194 40.9231L50.0736 43.2482C37.7266 50.713 22.3862 50.713 10.0392 43.2482C6.12153 40.8797 2.60766 39.4361 3.72422 35.0656C3.8604 34.533 4.09629 34.0169 4.41364 33.5458C9.04067 36.2607 10.4408 37.1743 13.4653 38.4626L14.3223 40.5875C14.5969 41.2684 15.2562 41.6826 15.953 41.6826C16.17 41.6826 16.3906 41.6424 16.6044 41.5576C17.2692 41.2938 17.6807 40.672 17.706 40.0053C19.6869 40.6081 21.713 41.0657 23.7686 41.3729L24.8564 44.0702C25.2162 44.9626 26.2376 45.3975 27.1386 45.0402C28.0389 44.6831 28.4768 43.6697 28.1166 42.7768L27.7125 41.775C28.4915 41.818 29.273 41.8406 30.0564 41.8406C31.5128 41.8406 32.9631 41.7658 34.4017 41.6182L35.3905 44.0701C35.7506 44.9634 36.7726 45.3972 37.6726 45.0402C38.573 44.6831 39.0109 43.6697 38.6507 42.7768L37.9734 41.0975C40.4727 40.6238 42.9212 39.9256 45.2897 39.013L45.9246 40.5875C46.1992 41.2684 46.8584 41.6826 47.5553 41.6826C47.7723 41.6826 47.9929 41.6424 48.2066 41.5576C49.107 41.2004 49.5449 40.187 49.1847 39.294L48.5077 37.6155C50.8057 36.5013 54.5748 34.2287 55.5754 33.5359C55.8961 34.0095 56.1341 34.5291 56.2712 35.0655C56.8678 37.3995 55.9446 39.6987 53.9194 40.9231ZM50.0732 32.7998C38.2792 39.93 23.2488 40.593 10.0188 32.7879C5.38325 30.0681 5.87907 30.3892 5.27907 29.888C3.81961 28.5939 3.2127 26.619 3.72411 24.6177C4.14364 22.9759 5.35055 21.6958 7.03583 21.1055C8.24251 20.6828 9.52184 20.6851 10.669 21.0811L14.3222 30.1394C14.5968 30.8203 15.2561 31.2345 15.9529 31.2345C16.1699 31.2345 16.3904 31.1943 16.6043 31.1095C17.5045 30.7523 17.9425 29.7389 17.5822 28.846L15.6784 24.1253C17.7045 25.2272 19.8423 26.0844 22.0598 26.6882L24.8562 33.622C25.1307 34.3028 25.79 34.7171 26.4868 34.7171C26.7039 34.7171 26.9244 34.6769 27.1383 34.592C28.0385 34.2348 28.4765 33.2215 28.1162 32.3285L26.1703 27.5035C27.4487 27.6658 28.7454 27.7491 30.056 27.7491C31.0344 27.7491 32.0051 27.7022 32.9664 27.6116L35.3902 33.6217C35.6647 34.3026 36.324 34.7168 37.0208 34.7168C37.2379 34.7168 37.4584 34.6766 37.6721 34.5918C38.5725 34.2346 39.0104 33.2212 38.6502 32.3284L36.5259 27.0611C39.007 26.5239 41.3994 25.675 43.6617 24.5291L45.9243 30.1391C46.1988 30.8199 46.8581 31.2342 47.5549 31.2342C47.772 31.2342 47.9925 31.194 48.2064 31.1091C49.1066 30.752 49.5445 29.7386 49.1843 28.8456L46.723 22.7428C47.1638 22.4494 47.5988 22.1449 48.0264 21.8269C49.44 20.7754 51.2943 20.5017 52.9865 21.0944C54.6507 21.6774 55.8479 22.9615 56.271 24.6171C57.3875 28.9868 53.9823 30.4364 50.0732 32.7998Z" fill="#5AB963"/>
<path d="M22.2809 10.1697C23.9472 9.06788 24.942 7.22438 24.942 5.23816C24.942 3.25206 23.9472 1.40845 22.2809 0.30672C21.4739 -0.226651 20.384 -0.0105826 19.8462 0.789648C19.3083 1.58988 19.5263 2.67103 20.3331 3.2044C21.0305 3.66548 21.4306 4.4069 21.4306 5.23816C21.4306 6.06942 21.0305 6.81084 20.3331 7.27204C18.6668 8.37376 17.672 10.2173 17.672 12.2035C17.672 14.1896 18.6668 16.0332 20.3331 17.135C21.1403 17.6686 22.2304 17.452 22.7678 16.6521C23.3057 15.8519 23.0877 14.7707 22.2809 14.2374C21.5835 13.7763 21.1834 13.0349 21.1834 12.2035C21.1834 11.3721 21.5835 10.6308 22.2809 10.1697ZM31.0594 10.1697C32.7257 9.06788 33.7205 7.22438 33.7205 5.23816C33.7205 3.25206 32.7257 1.40845 31.0594 0.30672C30.2524 -0.226651 29.1626 -0.0105826 28.6247 0.789648C28.0868 1.58988 28.3048 2.67103 29.1116 3.2044C29.809 3.66548 30.2091 4.4069 30.2091 5.23816C30.2091 6.06942 29.809 6.81084 29.1116 7.27204C27.4453 8.37376 26.4505 10.2173 26.4505 12.2035C26.4505 14.1896 27.4453 16.0332 29.1116 17.135C29.9188 17.6686 31.0088 17.452 31.5463 16.6521C32.0843 15.8519 31.8662 14.7707 31.0594 14.2374C30.362 13.7763 29.9619 13.0349 29.9619 12.2035C29.9619 11.3721 30.362 10.6308 31.0594 10.1697ZM39.8378 10.1697C41.5041 9.06788 42.4989 7.22438 42.4989 5.23816C42.4989 3.25206 41.5041 1.40845 39.8378 0.30672C39.0309 -0.226651 37.9409 -0.0105826 37.4031 0.789648C36.8651 1.58988 37.0832 2.67103 37.89 3.2044C38.5874 3.66548 38.9875 4.4069 38.9875 5.23816C38.9875 6.06942 38.5874 6.81084 37.89 7.27204C36.2237 8.37376 35.2289 10.2173 35.2289 12.2035C35.2289 14.1896 36.2237 16.0332 37.89 17.135C38.6972 17.6686 39.7872 17.452 40.3247 16.6521C40.8626 15.8519 40.6446 14.7707 39.8378 14.2374C39.1404 13.7763 38.7403 13.0349 38.7403 12.2035C38.7404 11.3721 39.1404 10.6308 39.8378 10.1697Z" fill="black"/>
</svg>
