<svg width="60" height="60" viewBox="0 0 60 60" fill="none" xmlns="http://www.w3.org/2000/svg">
<path d="M58.8861 26.7793C57.8807 25.4757 56.3611 24.7279 54.7171 24.7279H49.2904C49.3127 24.1449 49.324 23.5589 49.324 22.9705C49.324 22 48.5372 21.2132 47.5666 21.2132H1.75735C0.786802 21.2131 5.43737e-06 22 5.43737e-06 22.9705C5.43737e-06 33.4211 3.55348 43.0798 9.495 49.3314H1.75735C1.14821 49.3314 0.582545 49.6468 0.262388 50.1648C-0.057768 50.6829 -0.0868305 51.3299 0.185396 51.8746C2.65126 56.8062 7.73391 59.9928 13.1344 59.9928H36.1924C41.591 59.9928 46.6725 56.8062 49.1384 51.8746C49.4107 51.3298 49.3816 50.6829 49.0614 50.1648C48.7412 49.6468 48.1755 49.3314 47.5664 49.3314H39.8288C40.8852 48.2199 41.8662 47.0008 42.7651 45.6885C46.511 45.2575 50.1798 43.737 53.182 41.3555C56.4613 38.7542 58.8189 35.2224 59.8205 31.4107C60.2466 29.7897 59.9059 28.1016 58.8861 26.7793ZM33.5075 34.2427V38.787H29.9927V34.2427L31.7501 32.4853L33.5075 34.2427ZM44.2493 52.8227C42.1845 55.0895 39.2538 56.478 36.1927 56.478H13.1345C10.0718 56.478 7.14012 55.0895 5.07493 52.8227H44.2493ZM34.5793 49.3313H14.7447C8.17336 44.3766 3.97782 35.1153 3.55079 24.7279H29.9927V29.2722L26.9927 32.2722C26.6632 32.6017 26.4779 33.0487 26.4779 33.5148V40.5443C26.4779 41.5149 27.2647 42.3017 28.2353 42.3017H35.2648C36.2353 42.3017 37.0221 41.5149 37.0221 40.5443V33.5148C37.0221 33.0488 36.8368 32.6018 36.5073 32.2722L33.5073 29.2722V24.7044H45.773C45.3932 33.9485 41.8392 43.8576 34.5793 49.3313ZM56.4212 30.5173C55.045 35.7549 50.5541 40.0397 45.1373 41.6332C47.1165 37.6465 48.4527 33.0869 49.0182 28.2427H54.7168C55.4643 28.2427 55.9061 28.6707 56.1027 28.9258C56.452 29.3785 56.568 29.9585 56.4212 30.5173Z" fill="#5AB963"/>
<path d="M37.2574 14.5145C37.0098 14.2928 36.085 13.2687 36.085 12.309C36.085 11.3886 36.9592 10.3777 37.2573 10.1036C38.7523 8.76493 39.5756 7.05164 39.5756 5.27953C39.5756 3.50742 38.7524 1.79414 37.2573 0.455511C36.5344 -0.19195 35.4233 -0.130661 34.7758 0.592386C34.1283 1.31555 34.1896 2.42649 34.9126 3.07395C35.6637 3.7466 36.0608 4.50926 36.0608 5.27942C36.0608 6.04957 35.6639 6.81246 34.9127 7.485C34.6729 7.69981 32.5703 9.65907 32.5703 12.309C32.5703 14.959 34.673 16.9182 34.9127 17.133C35.6361 17.7807 36.7471 17.719 37.3943 16.9961C38.0417 16.273 37.9805 15.162 37.2574 14.5145ZM26.7131 14.5145C26.4655 14.2928 25.5407 13.2687 25.5407 12.309C25.5407 11.3886 26.4149 10.3777 26.713 10.1036C28.208 8.76493 29.0313 7.05164 29.0313 5.27953C29.0313 3.50742 28.2081 1.79414 26.713 0.455511C25.99 -0.19195 24.879 -0.130661 24.2315 0.592386C23.584 1.31555 23.6453 2.42649 24.3683 3.07395C25.1194 3.7466 25.5165 4.50926 25.5165 5.27942C25.5165 6.04957 25.1196 6.81246 24.3684 7.485C24.1287 7.69981 22.026 9.65907 22.026 12.309C22.026 14.959 24.1287 16.9182 24.3684 17.133C25.0918 17.7807 26.2028 17.719 26.85 16.9961C27.4974 16.273 27.4361 15.162 26.7131 14.5145ZM16.1688 14.5145C15.9212 14.2928 14.9964 13.2687 14.9964 12.309C14.9964 11.3886 15.8706 10.3777 16.1687 10.1036C17.6637 8.76493 18.487 7.05164 18.487 5.27953C18.487 3.50742 17.6638 1.79414 16.1687 0.455511C15.4457 -0.19195 14.3346 -0.130661 13.6872 0.592386C13.0397 1.31555 13.101 2.42649 13.824 3.07395C14.5751 3.7466 14.9722 4.50926 14.9722 5.27942C14.9722 6.04957 14.5753 6.81246 13.8242 7.485C13.5843 7.69981 11.4817 9.65907 11.4817 12.309C11.4817 14.959 13.5844 16.9182 13.8242 17.133C14.5474 17.7807 15.6585 17.719 16.3057 16.9961C16.9531 16.273 16.8918 15.162 16.1688 14.5145Z" fill="black"/>
</svg>
