<svg width="60" height="60" viewBox="0 0 60 60" fill="none" xmlns="http://www.w3.org/2000/svg">
<path d="M54.7266 3.51562H52.7657V1.75781C52.7657 0.787031 51.9786 0 51.0079 0C50.0371 0 49.25 0.787031 49.25 1.75781V3.51562H38.586V1.75781C38.586 0.787031 37.7989 0 36.8282 0C35.8574 0 35.0704 0.787031 35.0704 1.75781V3.51562H24.5235V1.75781C24.5235 0.787031 23.7364 0 22.7657 0C21.7949 0 21.0079 0.787031 21.0079 1.75781V3.51562H10.3438V1.75781C10.3438 0.787031 9.55676 0 8.58598 0C7.6152 0 6.82816 0.787031 6.82816 1.75781V3.51562H5.27344C2.36566 3.51562 0 5.88129 0 8.78906C0 10.7246 0 52.2335 0 54.7266C0 57.6343 2.36566 60 5.27344 60H54.7266C57.6343 60 60 57.6343 60 54.7266C60 52.2335 60 10.7246 60 8.78906C60 5.88129 57.6343 3.51562 54.7266 3.51562ZM56.4844 54.7266C56.4844 55.6958 55.6958 56.4844 54.7266 56.4844H48.3375L56.4844 48.3375V54.7266ZM45.8516 53.9985V45.9375H53.9126L45.8516 53.9985ZM56.4844 42.4219H44.0938C43.123 42.4219 42.336 43.2089 42.336 44.1797V56.4844H5.27344C4.30418 56.4844 3.51562 55.6958 3.51562 54.7266V17.5781H56.4844V42.4219ZM56.4844 13.1373C56.4844 13.1893 56.4844 13.2052 56.4844 13.2029C56.4844 13.3037 56.4844 13.5424 56.4844 14.0624H3.51562C3.51562 12.4146 3.51562 13.4152 3.51562 8.78895C3.51562 7.81969 4.30418 7.03113 5.27344 7.03113H6.82816V8.78895C6.82816 9.75973 7.6152 10.5468 8.58598 10.5468C9.55676 10.5468 10.3438 9.75973 10.3438 8.78895V7.03125H21.0079V8.78906C21.0079 9.75984 21.7949 10.5469 22.7657 10.5469C23.7364 10.5469 24.5235 9.75984 24.5235 8.78906V7.03125H35.0704V8.78906C35.0704 9.75984 35.8574 10.5469 36.8282 10.5469C37.7989 10.5469 38.586 9.75984 38.586 8.78906V7.03125H49.25V8.78906C49.25 9.75984 50.0371 10.5469 51.0079 10.5469C51.9786 10.5469 52.7657 9.75984 52.7657 8.78906V7.03125H54.7266C55.6958 7.03125 56.4844 7.8198 56.4844 8.78906C56.4844 11.994 56.4844 12.9118 56.4844 13.1373Z" fill="#5AB963"/>
<path d="M19.3672 21.0938H12.2188C11.248 21.0938 10.461 21.8808 10.461 22.8516V29.8828C10.461 30.8536 11.248 31.6406 12.2188 31.6406H19.3672C20.338 31.6406 21.1251 30.8536 21.1251 29.8828V22.8516C21.1251 21.8808 20.338 21.0938 19.3672 21.0938ZM17.6094 28.125H13.9766V24.6094H17.6094V28.125ZM19.3672 35.3906H12.2188C11.248 35.3906 10.461 36.1777 10.461 37.1484V44.1797C10.461 45.1505 11.248 45.9375 12.2188 45.9375H19.3672C20.338 45.9375 21.1251 45.1505 21.1251 44.1797V37.1484C21.1251 36.1777 20.338 35.3906 19.3672 35.3906ZM17.6094 42.4219H13.9766V38.9062H17.6094V42.4219ZM33.4297 21.0938H26.3985C25.4277 21.0938 24.6407 21.8808 24.6407 22.8516V29.8828C24.6407 30.8536 25.4277 31.6406 26.3985 31.6406H33.4297C34.4005 31.6406 35.1876 30.8536 35.1876 29.8828V22.8516C35.1876 21.8808 34.4005 21.0938 33.4297 21.0938ZM31.6719 28.125H28.1563V24.6094H31.6719V28.125ZM33.4297 35.3906H26.3985C25.4277 35.3906 24.6407 36.1777 24.6407 37.1484V44.1797C24.6407 45.1505 25.4277 45.9375 26.3985 45.9375H33.4297C34.4005 45.9375 35.1876 45.1505 35.1876 44.1797V37.1484C35.1876 36.1777 34.4005 35.3906 33.4297 35.3906ZM31.6719 42.4219H28.1563V38.9062H31.6719V42.4219ZM47.6094 21.0938H40.461C39.4902 21.0938 38.7032 21.8808 38.7032 22.8516V29.8828C38.7032 30.8536 39.4902 31.6406 40.461 31.6406H47.6094C48.5802 31.6406 49.3672 30.8536 49.3672 29.8828V22.8516C49.3672 21.8808 48.5802 21.0938 47.6094 21.0938ZM45.8516 28.125H42.2188V24.6094H45.8516V28.125Z" fill="black"/>
</svg>
